<svg width="128" height="128" viewBox="0 0 128 128" fill="none" xmlns="http://www.w3.org/2000/svg">
<path d="M40.3543 8.86481C41.3944 8.86481 42.2376 8.02302 42.2376 6.98462C42.2376 5.94622 41.3944 5.10443 40.3543 5.10443C39.3141 5.10443 38.4709 5.94622 38.4709 6.98462C38.4709 8.02302 39.3141 8.86481 40.3543 8.86481Z" fill="url(#paint0_radial_172_55)"/>
<path d="M48.0413 9.91004C49.6597 9.91004 50.9716 8.60028 50.9716 6.98462C50.9716 5.36895 49.6597 4.0592 48.0413 4.0592C46.423 4.0592 45.111 5.36895 45.111 6.98462C45.111 8.60028 46.423 9.91004 48.0413 9.91004Z" fill="url(#paint1_radial_172_55)"/>
<path d="M55.7284 9.96925C57.3795 9.96925 58.7179 8.63298 58.7179 6.98462C58.7179 5.33626 57.3795 4 55.7284 4C54.0773 4 52.7388 5.33626 52.7388 6.98462C52.7388 8.63298 54.0773 9.96925 55.7284 9.96925Z" fill="url(#paint2_radial_172_55)"/>
<path d="M24.9802 15.264C25.3149 15.264 25.5863 14.9931 25.5863 14.6589C25.5863 14.3247 25.3149 14.0538 24.9802 14.0538C24.6455 14.0538 24.3741 14.3247 24.3741 14.6589C24.3741 14.9931 24.6455 15.264 24.9802 15.264Z" fill="url(#paint3_radial_172_55)"/>
<path d="M40.3543 17.0919C41.7002 17.0919 42.7913 16.0026 42.7913 14.6589C42.7913 13.3152 41.7002 12.226 40.3543 12.226C39.0084 12.226 37.9173 13.3152 37.9173 14.6589C37.9173 16.0026 39.0084 17.0919 40.3543 17.0919Z" fill="url(#paint4_radial_172_55)"/>
<path d="M48.0413 18.4088C50.1158 18.4088 51.7975 16.7299 51.7975 14.6589C51.7975 12.5879 50.1158 10.909 48.0413 10.909C45.9669 10.909 44.2852 12.5879 44.2852 14.6589C44.2852 16.7299 45.9669 18.4088 48.0413 18.4088Z" fill="url(#paint5_radial_172_55)"/>
<path d="M55.7283 18.3338C57.7613 18.3338 59.4093 16.6885 59.4093 14.6589C59.4093 12.6293 57.7613 10.984 55.7283 10.984C53.6954 10.984 52.0474 12.6293 52.0474 14.6589C52.0474 16.6885 53.6954 18.3338 55.7283 18.3338Z" fill="url(#paint6_radial_172_55)"/>
<path d="M63.4154 15.6195C63.9468 15.6195 64.3775 15.1894 64.3775 14.6589C64.3775 14.1284 63.9468 13.6984 63.4154 13.6984C62.884 13.6984 62.4533 14.1284 62.4533 14.6589C62.4533 15.1894 62.884 15.6195 63.4154 15.6195Z" fill="url(#paint7_radial_172_55)"/>
<path d="M17.2931 24.3125C18.3881 24.3125 19.2758 23.4264 19.2758 22.3332C19.2758 21.2401 18.3881 20.3539 17.2931 20.3539C16.1982 20.3539 15.3105 21.2401 15.3105 22.3332C15.3105 23.4264 16.1982 24.3125 17.2931 24.3125Z" fill="url(#paint8_radial_172_55)"/>
<path d="M24.9802 25.8119C26.9046 25.8119 28.4646 24.2544 28.4646 22.3332C28.4646 20.412 26.9046 18.8546 24.9802 18.8546C23.0558 18.8546 21.4957 20.412 21.4957 22.3332C21.4957 24.2544 23.0558 25.8119 24.9802 25.8119Z" fill="url(#paint9_radial_172_55)"/>
<path d="M32.6672 24.3312C33.7725 24.3312 34.6686 23.4367 34.6686 22.3332C34.6686 21.2298 33.7725 20.3352 32.6672 20.3352C31.5619 20.3352 30.6659 21.2298 30.6659 22.3332C30.6659 23.4367 31.5619 24.3312 32.6672 24.3312Z" fill="url(#paint10_radial_172_55)"/>
<path d="M40.3543 23.5919C41.0506 23.5919 41.615 23.0284 41.615 22.3332C41.615 21.6381 41.0506 21.0746 40.3543 21.0746C39.658 21.0746 39.0935 21.6381 39.0935 22.3332C39.0935 23.0284 39.658 23.5919 40.3543 23.5919Z" fill="url(#paint11_radial_172_55)"/>
<path d="M48.0413 26.046C50.0952 26.046 51.7603 24.3837 51.7603 22.3332C51.7603 20.2827 50.0952 18.6204 48.0413 18.6204C45.9874 18.6204 44.3224 20.2827 44.3224 22.3332C44.3224 24.3837 45.9874 26.046 48.0413 26.046Z" fill="url(#paint12_radial_172_55)"/>
<path d="M55.7284 26.0831C57.8028 26.0831 59.4845 24.4042 59.4845 22.3332C59.4845 20.2622 57.8028 18.5833 55.7284 18.5833C53.6539 18.5833 51.9722 20.2622 51.9722 22.3332C51.9722 24.4042 53.6539 26.0831 55.7284 26.0831Z" fill="url(#paint13_radial_172_55)"/>
<path d="M63.4154 24.6062C64.6728 24.6062 65.6921 23.5885 65.6921 22.3332C65.6921 21.0779 64.6728 20.0603 63.4154 20.0603C62.158 20.0603 61.1387 21.0779 61.1387 22.3332C61.1387 23.5885 62.158 24.6062 63.4154 24.6062Z" fill="url(#paint14_radial_172_55)"/>
<path d="M9.60611 30.6126C9.94085 30.6126 10.2122 30.3417 10.2122 30.0075C10.2122 29.6733 9.94085 29.4024 9.60611 29.4024C9.27136 29.4024 9 29.6733 9 30.0075C9 30.3417 9.27136 30.6126 9.60611 30.6126Z" fill="url(#paint15_radial_172_55)"/>
<path d="M17.2931 33.4554C19.2005 33.4554 20.7467 31.9117 20.7467 30.0075C20.7467 28.1033 19.2005 26.5596 17.2931 26.5596C15.3858 26.5596 13.8395 28.1033 13.8395 30.0075C13.8395 31.9117 15.3858 33.4554 17.2931 33.4554Z" fill="url(#paint16_radial_172_55)"/>
<path d="M24.9802 33.7574C27.0547 33.7574 28.7363 32.0785 28.7363 30.0075C28.7363 27.9365 27.0547 26.2576 24.9802 26.2576C22.9057 26.2576 21.2241 27.9365 21.2241 30.0075C21.2241 32.0785 22.9057 33.7574 24.9802 33.7574Z" fill="url(#paint17_radial_172_55)"/>
<path d="M32.6672 33.6269C34.6695 33.6269 36.2926 32.0065 36.2926 30.0075C36.2926 28.0086 34.6695 26.3882 32.6672 26.3882C30.665 26.3882 29.0418 28.0086 29.0418 30.0075C29.0418 32.0065 30.665 33.6269 32.6672 33.6269Z" fill="url(#paint18_radial_172_55)"/>
<path d="M40.3543 32.0055C41.4596 32.0055 42.3556 31.111 42.3556 30.0075C42.3556 28.9041 41.4596 28.0095 40.3543 28.0095C39.249 28.0095 38.353 28.9041 38.353 30.0075C38.353 31.111 39.249 32.0055 40.3543 32.0055Z" fill="url(#paint19_radial_172_55)"/>
<path d="M48.0413 33.3921C49.9137 33.3921 51.4315 31.8768 51.4315 30.0075C51.4315 28.1383 49.9137 26.6229 48.0413 26.6229C46.1689 26.6229 44.6511 28.1383 44.6511 30.0075C44.6511 31.8768 46.1689 33.3921 48.0413 33.3921Z" fill="url(#paint20_radial_172_55)"/>
<path d="M55.7284 33.7574C57.8028 33.7574 59.4845 32.0785 59.4845 30.0075C59.4845 27.9365 57.8028 26.2576 55.7284 26.2576C53.6539 26.2576 51.9722 27.9365 51.9722 30.0075C51.9722 32.0785 53.6539 33.7574 55.7284 33.7574Z" fill="url(#paint21_radial_172_55)"/>
<path d="M63.4154 32.9671C65.0526 32.9671 66.3798 31.642 66.3798 30.0075C66.3798 28.373 65.0526 27.048 63.4154 27.048C61.7782 27.048 60.4509 28.373 60.4509 30.0075C60.4509 31.642 61.7782 32.9671 63.4154 32.9671Z" fill="url(#paint22_radial_172_55)"/>
<path d="M17.2931 39.5827C18.3447 39.5827 19.1971 38.7316 19.1971 37.6818C19.1971 36.632 18.3447 35.781 17.2931 35.781C16.2416 35.781 15.3891 36.632 15.3891 37.6818C15.3891 38.7316 16.2416 39.5827 17.2931 39.5827Z" fill="url(#paint23_radial_172_55)"/>
<path d="M24.9802 41.2785C26.9698 41.2785 28.5828 39.6682 28.5828 37.6818C28.5828 35.6954 26.9698 34.0851 24.9802 34.0851C22.9905 34.0851 21.3775 35.6954 21.3775 37.6818C21.3775 39.6682 22.9905 41.2785 24.9802 41.2785Z" fill="url(#paint24_radial_172_55)"/>
<path d="M32.6672 41.4317C34.7417 41.4317 36.4234 39.7528 36.4234 37.6818C36.4234 35.6108 34.7417 33.9319 32.6672 33.9319C30.5928 33.9319 28.9111 35.6108 28.9111 37.6818C28.9111 39.7528 30.5928 41.4317 32.6672 41.4317Z" fill="url(#paint25_radial_172_55)"/>
<path d="M40.3543 41.3012C42.3565 41.3012 43.9797 39.6808 43.9797 37.6818C43.9797 35.6829 42.3565 34.0625 40.3543 34.0625C38.352 34.0625 36.7289 35.6829 36.7289 37.6818C36.7289 39.6808 38.352 41.3012 40.3543 41.3012Z" fill="url(#paint26_radial_172_55)"/>
<path d="M48.0413 40.4621C49.5794 40.4621 50.8262 39.2173 50.8262 37.6818C50.8262 36.1463 49.5794 34.9016 48.0413 34.9016C46.5033 34.9016 45.2564 36.1463 45.2564 37.6818C45.2564 39.2173 46.5033 40.4621 48.0413 40.4621Z" fill="url(#paint27_radial_172_55)"/>
<path d="M55.7284 41.3839C57.7763 41.3839 59.4365 39.7264 59.4365 37.6818C59.4365 35.6373 57.7763 33.9798 55.7284 33.9798C53.6804 33.9798 52.0202 35.6373 52.0202 37.6818C52.0202 39.7264 53.6804 41.3839 55.7284 41.3839Z" fill="url(#paint28_radial_172_55)"/>
<path d="M63.4154 41.0984C65.3054 41.0984 66.8376 39.5687 66.8376 37.6818C66.8376 35.7949 65.3054 34.2653 63.4154 34.2653C61.5254 34.2653 59.9932 35.7949 59.9932 37.6818C59.9932 39.5687 61.5254 41.0984 63.4154 41.0984Z" fill="url(#paint29_radial_172_55)"/>
<path d="M101.851 39.5409C102.879 39.5409 103.713 38.7086 103.713 37.6818C103.713 36.6551 102.879 35.8228 101.851 35.8228C100.822 35.8228 99.9885 36.6551 99.9885 37.6818C99.9885 38.7086 100.822 39.5409 101.851 39.5409Z" fill="url(#paint30_radial_172_55)"/>
<path d="M109.538 40.4233C111.054 40.4233 112.284 39.1959 112.284 37.6818C112.284 36.1677 111.054 34.9403 109.538 34.9403C108.021 34.9403 106.792 36.1677 106.792 37.6818C106.792 39.1959 108.021 40.4233 109.538 40.4233Z" fill="url(#paint31_radial_172_55)"/>
<path d="M117.225 38.9405C117.921 38.9405 118.485 38.377 118.485 37.6818C118.485 36.9867 117.921 36.4232 117.225 36.4232C116.528 36.4232 115.964 36.9867 115.964 37.6818C115.964 38.377 116.528 38.9405 117.225 38.9405Z" fill="url(#paint32_radial_172_55)"/>
<path d="M24.9802 47.257C26.0317 47.257 26.8842 46.4059 26.8842 45.3561C26.8842 44.3063 26.0317 43.4553 24.9802 43.4553C23.9286 43.4553 23.0762 44.3063 23.0762 45.3561C23.0762 46.4059 23.9286 47.257 24.9802 47.257Z" fill="url(#paint33_radial_172_55)"/>
<path d="M32.6672 48.9528C34.6569 48.9528 36.2699 47.3425 36.2699 45.3561C36.2699 43.3697 34.6569 41.7594 32.6672 41.7594C30.6775 41.7594 29.0645 43.3697 29.0645 45.3561C29.0645 47.3425 30.6775 48.9528 32.6672 48.9528Z" fill="url(#paint34_radial_172_55)"/>
<path d="M40.3543 49.106C42.4287 49.106 44.1104 47.4271 44.1104 45.3561C44.1104 43.2851 42.4287 41.6062 40.3543 41.6062C38.2798 41.6062 36.5981 43.2851 36.5981 45.3561C36.5981 47.4271 38.2798 49.106 40.3543 49.106Z" fill="url(#paint35_radial_172_55)"/>
<path d="M48.0413 47.6849C49.3296 47.6849 50.3739 46.6423 50.3739 45.3561C50.3739 44.07 49.3296 43.0274 48.0413 43.0274C46.7531 43.0274 45.7087 44.07 45.7087 45.3561C45.7087 46.6423 46.7531 47.6849 48.0413 47.6849Z" fill="url(#paint36_radial_172_55)"/>
<path d="M55.7284 47.1714C56.7326 47.1714 57.5467 46.3587 57.5467 45.3561C57.5467 44.3536 56.7326 43.5408 55.7284 43.5408C54.7241 43.5408 53.91 44.3536 53.91 45.3561C53.91 46.3587 54.7241 47.1714 55.7284 47.1714Z" fill="url(#paint37_radial_172_55)"/>
<path d="M63.4154 48.5784C65.1979 48.5784 66.643 47.1357 66.643 45.3561C66.643 43.5766 65.1979 42.1339 63.4154 42.1339C61.6329 42.1339 60.1878 43.5766 60.1878 45.3561C60.1878 47.1357 61.6329 48.5784 63.4154 48.5784Z" fill="url(#paint38_radial_172_55)"/>
<path d="M71.1025 47.5552C72.319 47.5552 73.3052 46.5707 73.3052 45.3561C73.3052 44.1416 72.319 43.157 71.1025 43.157C69.8859 43.157 68.8997 44.1416 68.8997 45.3561C68.8997 46.5707 69.8859 47.5552 71.1025 47.5552Z" fill="url(#paint39_radial_172_55)"/>
<path d="M78.7895 47.9192C80.2074 47.9192 81.3569 46.7717 81.3569 45.3561C81.3569 43.9406 80.2074 42.793 78.7895 42.793C77.3716 42.793 76.2221 43.9406 76.2221 45.3561C76.2221 46.7717 77.3716 47.9192 78.7895 47.9192Z" fill="url(#paint40_radial_172_55)"/>
<path d="M86.4765 48.4981C88.2147 48.4981 89.6237 47.0914 89.6237 45.3561C89.6237 43.6208 88.2147 42.2141 86.4765 42.2141C84.7384 42.2141 83.3293 43.6208 83.3293 45.3561C83.3293 47.0914 84.7384 48.4981 86.4765 48.4981Z" fill="url(#paint41_radial_172_55)"/>
<path d="M94.1636 48.9182C96.1341 48.9182 97.7316 47.3234 97.7316 45.3561C97.7316 43.3888 96.1341 41.794 94.1636 41.794C92.193 41.794 90.5956 43.3888 90.5956 45.3561C90.5956 47.3234 92.193 48.9182 94.1636 48.9182Z" fill="url(#paint42_radial_172_55)"/>
<path d="M101.851 49.1113C103.928 49.1113 105.612 47.43 105.612 45.3561C105.612 43.2822 103.928 41.601 101.851 41.601C99.7733 41.601 98.0892 43.2822 98.0892 45.3561C98.0892 47.43 99.7733 49.1113 101.851 49.1113Z" fill="url(#paint43_radial_172_55)"/>
<path d="M109.538 49.106C111.612 49.106 113.294 47.4271 113.294 45.3561C113.294 43.2851 111.612 41.6062 109.538 41.6062C107.463 41.6062 105.782 43.2851 105.782 45.3561C105.782 47.4271 107.463 49.106 109.538 49.106Z" fill="url(#paint44_radial_172_55)"/>
<path d="M117.225 47.8015C118.577 47.8015 119.674 46.7067 119.674 45.3561C119.674 44.0056 118.577 42.9108 117.225 42.9108C115.872 42.9108 114.775 44.0056 114.775 45.3561C114.775 46.7067 115.872 47.8015 117.225 47.8015Z" fill="url(#paint45_radial_172_55)"/>
<path d="M32.6672 54.9313C33.7188 54.9313 34.5712 54.0802 34.5712 53.0304C34.5712 51.9806 33.7188 51.1296 32.6672 51.1296C31.6157 51.1296 30.7632 51.9806 30.7632 53.0304C30.7632 54.0802 31.6157 54.9313 32.6672 54.9313Z" fill="url(#paint46_radial_172_55)"/>
<path d="M40.3542 56.6271C42.3439 56.6271 43.9569 55.0168 43.9569 53.0304C43.9569 51.044 42.3439 49.4337 40.3542 49.4337C38.3646 49.4337 36.7516 51.044 36.7516 53.0304C36.7516 55.0168 38.3646 56.6271 40.3542 56.6271Z" fill="url(#paint47_radial_172_55)"/>
<path d="M48.0413 55.3592C49.3296 55.3592 50.3739 54.3166 50.3739 53.0305C50.3739 51.7443 49.3296 50.7017 48.0413 50.7017C46.7531 50.7017 45.7087 51.7443 45.7087 53.0305C45.7087 54.3166 46.7531 55.3592 48.0413 55.3592Z" fill="url(#paint48_radial_172_55)"/>
<path d="M71.1025 55.3455C72.3831 55.3455 73.4213 54.309 73.4213 53.0304C73.4213 51.7519 72.3831 50.7154 71.1025 50.7154C69.8218 50.7154 68.7836 51.7519 68.7836 53.0304C68.7836 54.309 69.8218 55.3455 71.1025 55.3455Z" fill="url(#paint49_radial_172_55)"/>
<path d="M78.7895 56.5152C80.7173 56.5152 82.28 54.955 82.28 53.0304C82.28 51.1058 80.7173 49.5457 78.7895 49.5457C76.8617 49.5457 75.2989 51.1058 75.2989 53.0304C75.2989 54.955 76.8617 56.5152 78.7895 56.5152Z" fill="url(#paint50_radial_172_55)"/>
<path d="M86.4766 56.7804C88.551 56.7804 90.2327 55.1015 90.2327 53.0304C90.2327 50.9594 88.551 49.2805 86.4766 49.2805C84.4021 49.2805 82.7204 50.9594 82.7204 53.0304C82.7204 55.1015 84.4021 56.7804 86.4766 56.7804Z" fill="url(#paint51_radial_172_55)"/>
<path d="M94.1636 56.7804C96.2381 56.7804 97.9197 55.1015 97.9197 53.0304C97.9197 50.9594 96.2381 49.2805 94.1636 49.2805C92.0891 49.2805 90.4075 50.9594 90.4075 53.0304C90.4075 55.1015 92.0891 56.7804 94.1636 56.7804Z" fill="url(#paint52_radial_172_55)"/>
<path d="M101.851 56.7804C103.925 56.7804 105.607 55.1015 105.607 53.0304C105.607 50.9594 103.925 49.2805 101.851 49.2805C99.7762 49.2805 98.0945 50.9594 98.0945 53.0304C98.0945 55.1015 99.7762 56.7804 101.851 56.7804Z" fill="url(#paint53_radial_172_55)"/>
<path d="M109.538 56.5867C111.505 56.5867 113.1 54.9945 113.1 53.0304C113.1 51.0663 111.505 49.4741 109.538 49.4741C107.57 49.4741 105.975 51.0663 105.975 53.0304C105.975 54.9945 107.57 56.5867 109.538 56.5867Z" fill="url(#paint54_radial_172_55)"/>
<path d="M117.225 55.5936C118.643 55.5936 119.792 54.446 119.792 53.0304C119.792 51.6149 118.643 50.4673 117.225 50.4673C115.807 50.4673 114.657 51.6149 114.657 53.0304C114.657 54.446 115.807 55.5936 117.225 55.5936Z" fill="url(#paint55_radial_172_55)"/>
<path d="M40.3542 62.7741C41.4991 62.7741 42.4271 61.8476 42.4271 60.7047C42.4271 59.5618 41.4991 58.6353 40.3542 58.6353C39.2094 58.6353 38.2814 59.5618 38.2814 60.7047C38.2814 61.8476 39.2094 62.7741 40.3542 62.7741Z" fill="url(#paint56_radial_172_55)"/>
<path d="M48.0413 63.0335C49.3296 63.0335 50.3739 61.9909 50.3739 60.7048C50.3739 59.4186 49.3296 58.376 48.0413 58.376C46.7531 58.376 45.7087 59.4186 45.7087 60.7048C45.7087 61.9909 46.7531 63.0335 48.0413 63.0335Z" fill="url(#paint57_radial_172_55)"/>
<path d="M78.7895 61.4671C79.2112 61.4671 79.5531 61.1258 79.5531 60.7047C79.5531 60.2837 79.2112 59.9424 78.7895 59.9424C78.3677 59.9424 78.0258 60.2837 78.0258 60.7047C78.0258 61.1258 78.3677 61.4671 78.7895 61.4671Z" fill="url(#paint58_radial_172_55)"/>
<path d="M86.4765 63.3653C87.9484 63.3653 89.1415 62.1741 89.1415 60.7047C89.1415 59.2354 87.9484 58.0442 86.4765 58.0442C85.0047 58.0442 83.8116 59.2354 83.8116 60.7047C83.8116 62.1741 85.0047 63.3653 86.4765 63.3653Z" fill="url(#paint59_radial_172_55)"/>
<path d="M94.1636 63.4364C95.6747 63.4364 96.8998 62.2134 96.8998 60.7048C96.8998 59.1961 95.6747 57.9731 94.1636 57.9731C92.6524 57.9731 91.4274 59.1961 91.4274 60.7048C91.4274 62.2134 92.6524 63.4364 94.1636 63.4364Z" fill="url(#paint60_radial_172_55)"/>
<path d="M101.851 62.5638C102.879 62.5638 103.713 61.7315 103.713 60.7047C103.713 59.678 102.879 58.8457 101.851 58.8457C100.822 58.8457 99.9885 59.678 99.9885 60.7047C99.9885 61.7315 100.822 62.5638 101.851 62.5638Z" fill="url(#paint61_radial_172_55)"/>
<path d="M109.538 61.3099C109.872 61.3099 110.144 61.0389 110.144 60.7048C110.144 60.3706 109.872 60.0996 109.538 60.0996C109.203 60.0996 108.932 60.3706 108.932 60.7048C108.932 61.0389 109.203 61.3099 109.538 61.3099Z" fill="url(#paint62_radial_172_55)"/>
<path d="M40.3543 71.3801C42.0145 71.3801 43.3603 70.0365 43.3603 68.379C43.3603 66.7216 42.0145 65.3779 40.3543 65.3779C38.694 65.3779 37.3482 66.7216 37.3482 68.379C37.3482 70.0365 38.694 71.3801 40.3543 71.3801Z" fill="url(#paint63_radial_172_55)"/>
<path d="M48.0413 70.7078C49.3296 70.7078 50.3739 69.6652 50.3739 68.3791C50.3739 67.0929 49.3296 66.0503 48.0413 66.0503C46.7531 66.0503 45.7087 67.0929 45.7087 68.3791C45.7087 69.6652 46.7531 70.7078 48.0413 70.7078Z" fill="url(#paint64_radial_172_55)"/>
<path d="M71.1025 68.9842C71.4372 68.9842 71.7086 68.7132 71.7086 68.3791C71.7086 68.0449 71.4372 67.774 71.1025 67.774C70.7677 67.774 70.4964 68.0449 70.4964 68.3791C70.4964 68.7132 70.7677 68.9842 71.1025 68.9842Z" fill="url(#paint65_radial_172_55)"/>
<path d="M78.7895 70.9533C80.2136 70.9533 81.3681 69.8008 81.3681 68.379C81.3681 66.9573 80.2136 65.8047 78.7895 65.8047C77.3654 65.8047 76.2109 66.9573 76.2109 68.379C76.2109 69.8008 77.3654 70.9533 78.7895 70.9533Z" fill="url(#paint66_radial_172_55)"/>
<path d="M86.4765 71.9585C88.4567 71.9585 90.0619 70.3559 90.0619 68.379C90.0619 66.4021 88.4567 64.7996 86.4765 64.7996C84.4964 64.7996 82.8911 66.4021 82.8911 68.379C82.8911 70.3559 84.4964 71.9585 86.4765 71.9585Z" fill="url(#paint67_radial_172_55)"/>
<path d="M94.1636 71.9984C96.1658 71.9984 97.789 70.378 97.789 68.379C97.789 66.3801 96.1658 64.7597 94.1636 64.7597C92.1613 64.7597 90.5382 66.3801 90.5382 68.379C90.5382 70.378 92.1613 71.9984 94.1636 71.9984Z" fill="url(#paint68_radial_172_55)"/>
<path d="M101.851 71.6013C103.633 71.6013 105.078 70.1586 105.078 68.379C105.078 66.5995 103.633 65.1568 101.851 65.1568C100.068 65.1568 98.6231 66.5995 98.6231 68.379C98.6231 70.1586 100.068 71.6013 101.851 71.6013Z" fill="url(#paint69_radial_172_55)"/>
<path d="M109.538 71.0705C111.027 71.0705 112.234 69.8655 112.234 68.379C112.234 66.8926 111.027 65.6876 109.538 65.6876C108.049 65.6876 106.842 66.8926 106.842 68.379C106.842 69.8655 108.049 71.0705 109.538 71.0705Z" fill="url(#paint70_radial_172_55)"/>
<path d="M117.225 70.0746C118.163 70.0746 118.923 69.3154 118.923 68.379C118.923 67.4426 118.163 66.6835 117.225 66.6835C116.287 66.6835 115.526 67.4426 115.526 68.379C115.526 69.3154 116.287 70.0746 117.225 70.0746Z" fill="url(#paint71_radial_172_55)"/>
<path d="M24.9802 76.6584C25.3149 76.6584 25.5863 76.3875 25.5863 76.0534C25.5863 75.7192 25.3149 75.4483 24.9802 75.4483C24.6455 75.4483 24.3741 75.7192 24.3741 76.0534C24.3741 76.3875 24.6455 76.6584 24.9802 76.6584Z" fill="url(#paint72_radial_172_55)"/>
<path d="M32.6672 79.038C34.3183 79.038 35.6568 77.7017 35.6568 76.0533C35.6568 74.405 34.3183 73.0687 32.6672 73.0687C31.0161 73.0687 29.6777 74.405 29.6777 76.0533C29.6777 77.7017 31.0161 79.038 32.6672 79.038Z" fill="url(#paint73_radial_172_55)"/>
<path d="M40.3543 79.8033C42.4287 79.8033 44.1104 78.1244 44.1104 76.0534C44.1104 73.9823 42.4287 72.3034 40.3543 72.3034C38.2798 72.3034 36.5981 73.9823 36.5981 76.0534C36.5981 78.1244 38.2798 79.8033 40.3543 79.8033Z" fill="url(#paint74_radial_172_55)"/>
<path d="M48.0413 78.3821C49.3296 78.3821 50.3739 77.3395 50.3739 76.0534C50.3739 74.7672 49.3296 73.7246 48.0413 73.7246C46.7531 73.7246 45.7087 74.7672 45.7087 76.0534C45.7087 77.3395 46.7531 78.3821 48.0413 78.3821Z" fill="url(#paint75_radial_172_55)"/>
<path d="M63.4154 78.1733C64.5882 78.1733 65.5389 77.2241 65.5389 76.0534C65.5389 74.8826 64.5882 73.9334 63.4154 73.9334C62.2427 73.9334 61.292 74.8826 61.292 76.0534C61.292 77.2241 62.2427 78.1733 63.4154 78.1733Z" fill="url(#paint76_radial_172_55)"/>
<path d="M71.1024 78.8898C72.6716 78.8898 73.9436 77.6198 73.9436 76.0533C73.9436 74.4868 72.6716 73.2169 71.1024 73.2169C69.5333 73.2169 68.2613 74.4868 68.2613 76.0533C68.2613 77.6198 69.5333 78.8898 71.1024 78.8898Z" fill="url(#paint77_radial_172_55)"/>
<path d="M78.7895 79.5197C80.7071 79.5197 82.2616 77.9678 82.2616 76.0533C82.2616 74.1389 80.7071 72.5869 78.7895 72.5869C76.8718 72.5869 75.3173 74.1389 75.3173 76.0533C75.3173 77.9678 76.8718 79.5197 78.7895 79.5197Z" fill="url(#paint78_radial_172_55)"/>
<path d="M86.4765 79.7927C88.5452 79.7927 90.2221 78.1186 90.2221 76.0534C90.2221 73.9881 88.5452 72.314 86.4765 72.314C84.4079 72.314 82.731 73.9881 82.731 76.0534C82.731 78.1186 84.4079 79.7927 86.4765 79.7927Z" fill="url(#paint79_radial_172_55)"/>
<path d="M94.1636 79.8033C96.2381 79.8033 97.9197 78.1244 97.9197 76.0534C97.9197 73.9823 96.2381 72.3034 94.1636 72.3034C92.0891 72.3034 90.4075 73.9823 90.4075 76.0534C90.4075 78.1244 92.0891 79.8033 94.1636 79.8033Z" fill="url(#paint80_radial_172_55)"/>
<path d="M101.851 79.8033C103.925 79.8033 105.607 78.1244 105.607 76.0534C105.607 73.9823 103.925 72.3034 101.851 72.3034C99.7762 72.3034 98.0945 73.9823 98.0945 76.0534C98.0945 78.1244 99.7762 79.8033 101.851 79.8033Z" fill="url(#paint81_radial_172_55)"/>
<path d="M109.538 79.8033C111.612 79.8033 113.294 78.1244 113.294 76.0534C113.294 73.9823 111.612 72.3034 109.538 72.3034C107.463 72.3034 105.782 73.9823 105.782 76.0534C105.782 78.1244 107.463 79.8033 109.538 79.8033Z" fill="url(#paint82_radial_172_55)"/>
<path d="M117.225 78.824C118.757 78.824 120 77.5836 120 76.0534C120 74.5231 118.757 73.2827 117.225 73.2827C115.692 73.2827 114.449 74.5231 114.449 76.0534C114.449 77.5836 115.692 78.824 117.225 78.824Z" fill="url(#paint83_radial_172_55)"/>
<path d="M17.2932 84.3328C17.6279 84.3328 17.8993 84.0618 17.8993 83.7277C17.8993 83.3935 17.6279 83.1226 17.2932 83.1226C16.9584 83.1226 16.687 83.3935 16.687 83.7277C16.687 84.0618 16.9584 84.3328 17.2932 84.3328Z" fill="url(#paint84_radial_172_55)"/>
<path d="M24.9802 86.7039C26.6267 86.7039 27.9614 85.3714 27.9614 83.7276C27.9614 82.0839 26.6267 80.7513 24.9802 80.7513C23.3337 80.7513 21.9989 82.0839 21.9989 83.7276C21.9989 85.3714 23.3337 86.7039 24.9802 86.7039Z" fill="url(#paint85_radial_172_55)"/>
<path d="M32.6672 87.4776C34.7417 87.4776 36.4234 85.7987 36.4234 83.7277C36.4234 81.6566 34.7417 79.9777 32.6672 79.9777C30.5928 79.9777 28.9111 81.6566 28.9111 83.7277C28.9111 85.7987 30.5928 87.4776 32.6672 87.4776Z" fill="url(#paint86_radial_172_55)"/>
<path d="M40.3543 87.4776C42.4287 87.4776 44.1104 85.7987 44.1104 83.7277C44.1104 81.6566 42.4287 79.9777 40.3543 79.9777C38.2798 79.9777 36.5981 81.6566 36.5981 83.7277C36.5981 85.7987 38.2798 87.4776 40.3543 87.4776Z" fill="url(#paint87_radial_172_55)"/>
<path d="M48.0413 86.1606C49.3872 86.1606 50.4783 85.0713 50.4783 83.7277C50.4783 82.384 49.3872 81.2947 48.0413 81.2947C46.6954 81.2947 45.6043 82.384 45.6043 83.7277C45.6043 85.0713 46.6954 86.1606 48.0413 86.1606Z" fill="url(#paint88_radial_172_55)"/>
<path d="M55.7284 86.8696C57.4665 86.8696 58.8756 85.4629 58.8756 83.7276C58.8756 81.9924 57.4665 80.5856 55.7284 80.5856C53.9902 80.5856 52.5811 81.9924 52.5811 83.7276C52.5811 85.4629 53.9902 86.8696 55.7284 86.8696Z" fill="url(#paint89_radial_172_55)"/>
<path d="M63.4154 87.3413C65.4145 87.3413 67.0351 85.7234 67.0351 83.7276C67.0351 81.7318 65.4145 80.1139 63.4154 80.1139C61.4163 80.1139 59.7957 81.7318 59.7957 83.7276C59.7957 85.7234 61.4163 87.3413 63.4154 87.3413Z" fill="url(#paint90_radial_172_55)"/>
<path d="M71.1025 84.3328C71.4372 84.3328 71.7086 84.0618 71.7086 83.7277C71.7086 83.3935 71.4372 83.1226 71.1025 83.1226C70.7677 83.1226 70.4964 83.3935 70.4964 83.7277C70.4964 84.0618 70.7677 84.3328 71.1025 84.3328Z" fill="url(#paint91_radial_172_55)"/>
<path d="M86.4765 85.2524C87.32 85.2524 88.0038 84.5697 88.0038 83.7276C88.0038 82.8855 87.32 82.2029 86.4765 82.2029C85.633 82.2029 84.9492 82.8855 84.9492 83.7276C84.9492 84.5697 85.633 85.2524 86.4765 85.2524Z" fill="url(#paint92_radial_172_55)"/>
<path d="M94.1636 86.3019C95.5877 86.3019 96.7421 85.1494 96.7421 83.7276C96.7421 82.3059 95.5877 81.1533 94.1636 81.1533C92.7395 81.1533 91.585 82.3059 91.585 83.7276C91.585 85.1494 92.7395 86.3019 94.1636 86.3019Z" fill="url(#paint93_radial_172_55)"/>
<path d="M101.851 86.8771C103.593 86.8771 105.005 85.467 105.005 83.7277C105.005 81.9883 103.593 80.5782 101.851 80.5782C100.108 80.5782 98.6959 81.9883 98.6959 83.7277C98.6959 85.467 100.108 86.8771 101.851 86.8771Z" fill="url(#paint94_radial_172_55)"/>
<path d="M109.538 87.2898C111.508 87.2898 113.106 85.6949 113.106 83.7277C113.106 81.7604 111.508 80.1656 109.538 80.1656C107.567 80.1656 105.97 81.7604 105.97 83.7277C105.97 85.6949 107.567 87.2898 109.538 87.2898Z" fill="url(#paint95_radial_172_55)"/>
<path d="M117.225 85.6487C118.287 85.6487 119.149 84.7886 119.149 83.7277C119.149 82.6667 118.287 81.8066 117.225 81.8066C116.162 81.8066 115.3 82.6667 115.3 83.7277C115.3 84.7886 116.162 85.6487 117.225 85.6487Z" fill="url(#paint96_radial_172_55)"/>
<path d="M9.60611 92.0071C9.94085 92.0071 10.2122 91.7361 10.2122 91.402C10.2122 91.0678 9.94085 90.7969 9.60611 90.7969C9.27136 90.7969 9 91.0678 9 91.402C9 91.7361 9.27136 92.0071 9.60611 92.0071Z" fill="url(#paint97_radial_172_55)"/>
<path d="M17.2932 94.353C18.9257 94.353 20.2491 93.0318 20.2491 91.402C20.2491 89.7721 18.9257 88.4509 17.2932 88.4509C15.6606 88.4509 14.3372 89.7721 14.3372 91.402C14.3372 93.0318 15.6606 94.353 17.2932 94.353Z" fill="url(#paint98_radial_172_55)"/>
<path d="M24.9802 95.1519C27.0547 95.1519 28.7363 93.473 28.7363 91.402C28.7363 89.3309 27.0547 87.6521 24.9802 87.6521C22.9057 87.6521 21.2241 89.3309 21.2241 91.402C21.2241 93.473 22.9057 95.1519 24.9802 95.1519Z" fill="url(#paint99_radial_172_55)"/>
<path d="M32.6672 95.1571C34.7446 95.1571 36.4286 93.4759 36.4286 91.4019C36.4286 89.328 34.7446 87.6468 32.6672 87.6468C30.5899 87.6468 28.9058 89.328 28.9058 91.4019C28.9058 93.4759 30.5899 95.1571 32.6672 95.1571Z" fill="url(#paint100_radial_172_55)"/>
<path d="M40.3543 94.4751C42.0543 94.4751 43.4325 93.0992 43.4325 91.4019C43.4325 89.7047 42.0543 88.3288 40.3543 88.3288C38.6542 88.3288 37.276 89.7047 37.276 91.4019C37.276 93.0992 38.6542 94.4751 40.3543 94.4751Z" fill="url(#paint101_radial_172_55)"/>
<path d="M48.0413 94.5514C49.7836 94.5514 51.196 93.1414 51.196 91.402C51.196 89.6626 49.7836 88.2525 48.0413 88.2525C46.299 88.2525 44.8866 89.6626 44.8866 91.402C44.8866 93.1414 46.299 94.5514 48.0413 94.5514Z" fill="url(#paint102_radial_172_55)"/>
<path d="M55.7284 95.1519C57.8028 95.1519 59.4845 93.473 59.4845 91.402C59.4845 89.3309 57.8028 87.6521 55.7284 87.6521C53.6539 87.6521 51.9722 89.3309 51.9722 91.402C51.9722 93.473 53.6539 95.1519 55.7284 95.1519Z" fill="url(#paint103_radial_172_55)"/>
<path d="M63.4154 94.6383C65.2058 94.6383 66.6571 93.1893 66.6571 91.4019C66.6571 89.6145 65.2058 88.1656 63.4154 88.1656C61.625 88.1656 60.1736 89.6145 60.1736 91.4019C60.1736 93.1893 61.625 94.6383 63.4154 94.6383Z" fill="url(#paint104_radial_172_55)"/>
<path d="M109.538 92.0071C109.872 92.0071 110.144 91.7361 110.144 91.402C110.144 91.0678 109.872 90.7969 109.538 90.7969C109.203 90.7969 108.932 91.0678 108.932 91.402C108.932 91.7361 109.203 92.0071 109.538 92.0071Z" fill="url(#paint105_radial_172_55)"/>
<path d="M17.2931 102.102C18.9668 102.102 20.3237 100.747 20.3237 99.0762C20.3237 97.4053 18.9668 96.0507 17.2931 96.0507C15.6194 96.0507 14.2626 97.4053 14.2626 99.0762C14.2626 100.747 15.6194 102.102 17.2931 102.102Z" fill="url(#paint106_radial_172_55)"/>
<path d="M24.9802 102.831C27.0575 102.831 28.7416 101.15 28.7416 99.0762C28.7416 97.0023 27.0575 95.3211 24.9802 95.3211C22.9028 95.3211 21.2188 97.0023 21.2188 99.0762C21.2188 101.15 22.9028 102.831 24.9802 102.831Z" fill="url(#paint107_radial_172_55)"/>
<path d="M32.6672 102.157C34.3716 102.157 35.7533 100.778 35.7533 99.0762C35.7533 97.3747 34.3716 95.9953 32.6672 95.9953C30.9628 95.9953 29.5811 97.3747 29.5811 99.0762C29.5811 100.778 30.9628 102.157 32.6672 102.157Z" fill="url(#paint108_radial_172_55)"/>
<path d="M40.3543 99.6814C40.689 99.6814 40.9604 99.4104 40.9604 99.0763C40.9604 98.7421 40.689 98.4712 40.3543 98.4712C40.0195 98.4712 39.7482 98.7421 39.7482 99.0763C39.7482 99.4104 40.0195 99.6814 40.3543 99.6814Z" fill="url(#paint109_radial_172_55)"/>
<path d="M48.0413 102.656C50.0215 102.656 51.6267 101.053 51.6267 99.0762C51.6267 97.0993 50.0215 95.4968 48.0413 95.4968C46.0611 95.4968 44.4559 97.0993 44.4559 99.0762C44.4559 101.053 46.0611 102.656 48.0413 102.656Z" fill="url(#paint110_radial_172_55)"/>
<path d="M55.7284 102.826C57.8028 102.826 59.4845 101.147 59.4845 99.0763C59.4845 97.0053 57.8028 95.3264 55.7284 95.3264C53.6539 95.3264 51.9722 97.0053 51.9722 99.0763C51.9722 101.147 53.6539 102.826 55.7284 102.826Z" fill="url(#paint111_radial_172_55)"/>
<path d="M63.4154 101.778C64.91 101.778 66.1215 100.568 66.1215 99.0762C66.1215 97.5842 64.91 96.3746 63.4154 96.3746C61.9209 96.3746 60.7093 97.5842 60.7093 99.0762C60.7093 100.568 61.9209 101.778 63.4154 101.778Z" fill="url(#paint112_radial_172_55)"/>
<path d="M24.9802 109.244C26.3597 109.244 27.4781 108.128 27.4781 106.751C27.4781 105.373 26.3597 104.257 24.9802 104.257C23.6006 104.257 22.4822 105.373 22.4822 106.751C22.4822 108.128 23.6006 109.244 24.9802 109.244Z" fill="url(#paint113_radial_172_55)"/>
<path d="M32.6672 107.356C33.002 107.356 33.2733 107.085 33.2733 106.751C33.2733 106.416 33.002 106.145 32.6672 106.145C32.3325 106.145 32.0611 106.416 32.0611 106.751C32.0611 107.085 32.3325 107.356 32.6672 107.356Z" fill="url(#paint114_radial_172_55)"/>
<path d="M40.3543 108.672C41.417 108.672 42.2785 107.812 42.2785 106.751C42.2785 105.69 41.417 104.829 40.3543 104.829C39.2915 104.829 38.43 105.69 38.43 106.751C38.43 107.812 39.2915 108.672 40.3543 108.672Z" fill="url(#paint115_radial_172_55)"/>
<path d="M48.0413 110.5C50.1158 110.5 51.7975 108.822 51.7975 106.751C51.7975 104.68 50.1158 103.001 48.0413 103.001C45.9669 103.001 44.2852 104.68 44.2852 106.751C44.2852 108.822 45.9669 110.5 48.0413 110.5Z" fill="url(#paint116_radial_172_55)"/>
<path d="M55.7284 110.5C57.8028 110.5 59.4845 108.822 59.4845 106.751C59.4845 104.68 57.8028 103.001 55.7284 103.001C53.6539 103.001 51.9722 104.68 51.9722 106.751C51.9722 108.822 53.6539 110.5 55.7284 110.5Z" fill="url(#paint117_radial_172_55)"/>
<path d="M63.4154 108.543C64.4071 108.543 65.211 107.741 65.211 106.751C65.211 105.761 64.4071 104.958 63.4154 104.958C62.4237 104.958 61.6198 105.761 61.6198 106.751C61.6198 107.741 62.4237 108.543 63.4154 108.543Z" fill="url(#paint118_radial_172_55)"/>
<path d="M40.3543 116.907C41.7272 116.907 42.8403 115.796 42.8403 114.425C42.8403 113.054 41.7272 111.943 40.3543 111.943C38.9813 111.943 37.8683 113.054 37.8683 114.425C37.8683 115.796 38.9813 116.907 40.3543 116.907Z" fill="url(#paint119_radial_172_55)"/>
<path d="M48.0413 118.116C50.0833 118.116 51.7387 116.463 51.7387 114.425C51.7387 112.386 50.0833 110.734 48.0413 110.734C45.9993 110.734 44.344 112.386 44.344 114.425C44.344 116.463 45.9993 118.116 48.0413 118.116Z" fill="url(#paint120_radial_172_55)"/>
<path d="M55.7284 117.958C57.6827 117.958 59.267 116.376 59.267 114.425C59.267 112.474 57.6827 110.892 55.7284 110.892C53.774 110.892 52.1898 112.474 52.1898 114.425C52.1898 116.376 53.774 117.958 55.7284 117.958Z" fill="url(#paint121_radial_172_55)"/>
<path d="M63.4154 115.03C63.7502 115.03 64.0215 114.759 64.0215 114.425C64.0215 114.091 63.7502 113.82 63.4154 113.82C63.0807 113.82 62.8093 114.091 62.8093 114.425C62.8093 114.759 63.0807 115.03 63.4154 115.03Z" fill="url(#paint122_radial_172_55)"/>
<path d="M48.0413 123.134C48.6137 123.134 49.0777 122.671 49.0777 122.099C49.0777 121.528 48.6137 121.064 48.0413 121.064C47.4689 121.064 47.0049 121.528 47.0049 122.099C47.0049 122.671 47.4689 123.134 48.0413 123.134Z" fill="url(#paint123_radial_172_55)"/>
<path d="M55.7283 124C56.7799 124 57.6324 123.149 57.6324 122.099C57.6324 121.049 56.7799 120.198 55.7283 120.198C54.6768 120.198 53.8243 121.049 53.8243 122.099C53.8243 123.149 54.6768 124 55.7283 124Z" fill="url(#paint124_radial_172_55)"/>
<defs>
<radialGradient id="paint0_radial_172_55" cx="0" cy="0" r="1" gradientUnits="userSpaceOnUse" gradientTransform="translate(64.5 64) rotate(90) scale(60 55.5)">
<stop stop-color="#62FAEA"/>
<stop offset="1" stop-color="#44E4D2"/>
</radialGradient>
<radialGradient id="paint1_radial_172_55" cx="0" cy="0" r="1" gradientUnits="userSpaceOnUse" gradientTransform="translate(64.5 64) rotate(90) scale(60 55.5)">
<stop stop-color="#62FAEA"/>
<stop offset="1" stop-color="#44E4D2"/>
</radialGradient>
<radialGradient id="paint2_radial_172_55" cx="0" cy="0" r="1" gradientUnits="userSpaceOnUse" gradientTransform="translate(64.5 64) rotate(90) scale(60 55.5)">
<stop stop-color="#62FAEA"/>
<stop offset="1" stop-color="#44E4D2"/>
</radialGradient>
<radialGradient id="paint3_radial_172_55" cx="0" cy="0" r="1" gradientUnits="userSpaceOnUse" gradientTransform="translate(64.5 64) rotate(90) scale(60 55.5)">
<stop stop-color="#62FAEA"/>
<stop offset="1" stop-color="#44E4D2"/>
</radialGradient>
<radialGradient id="paint4_radial_172_55" cx="0" cy="0" r="1" gradientUnits="userSpaceOnUse" gradientTransform="translate(64.5 64) rotate(90) scale(60 55.5)">
<stop stop-color="#62FAEA"/>
<stop offset="1" stop-color="#44E4D2"/>
</radialGradient>
<radialGradient id="paint5_radial_172_55" cx="0" cy="0" r="1" gradientUnits="userSpaceOnUse" gradientTransform="translate(64.5 64) rotate(90) scale(60 55.5)">
<stop stop-color="#62FAEA"/>
<stop offset="1" stop-color="#44E4D2"/>
</radialGradient>
<radialGradient id="paint6_radial_172_55" cx="0" cy="0" r="1" gradientUnits="userSpaceOnUse" gradientTransform="translate(64.5 64) rotate(90) scale(60 55.5)">
<stop stop-color="#62FAEA"/>
<stop offset="1" stop-color="#44E4D2"/>
</radialGradient>
<radialGradient id="paint7_radial_172_55" cx="0" cy="0" r="1" gradientUnits="userSpaceOnUse" gradientTransform="translate(64.5 64) rotate(90) scale(60 55.5)">
<stop stop-color="#62FAEA"/>
<stop offset="1" stop-color="#44E4D2"/>
</radialGradient>
<radialGradient id="paint8_radial_172_55" cx="0" cy="0" r="1" gradientUnits="userSpaceOnUse" gradientTransform="translate(64.5 64) rotate(90) scale(60 55.5)">
<stop stop-color="#62FAEA"/>
<stop offset="1" stop-color="#44E4D2"/>
</radialGradient>
<radialGradient id="paint9_radial_172_55" cx="0" cy="0" r="1" gradientUnits="userSpaceOnUse" gradientTransform="translate(64.5 64) rotate(90) scale(60 55.5)">
<stop stop-color="#62FAEA"/>
<stop offset="1" stop-color="#44E4D2"/>
</radialGradient>
<radialGradient id="paint10_radial_172_55" cx="0" cy="0" r="1" gradientUnits="userSpaceOnUse" gradientTransform="translate(64.5 64) rotate(90) scale(60 55.5)">
<stop stop-color="#62FAEA"/>
<stop offset="1" stop-color="#44E4D2"/>
</radialGradient>
<radialGradient id="paint11_radial_172_55" cx="0" cy="0" r="1" gradientUnits="userSpaceOnUse" gradientTransform="translate(64.5 64) rotate(90) scale(60 55.5)">
<stop stop-color="#62FAEA"/>
<stop offset="1" stop-color="#44E4D2"/>
</radialGradient>
<radialGradient id="paint12_radial_172_55" cx="0" cy="0" r="1" gradientUnits="userSpaceOnUse" gradientTransform="translate(64.5 64) rotate(90) scale(60 55.5)">
<stop stop-color="#62FAEA"/>
<stop offset="1" stop-color="#44E4D2"/>
</radialGradient>
<radialGradient id="paint13_radial_172_55" cx="0" cy="0" r="1" gradientUnits="userSpaceOnUse" gradientTransform="translate(64.5 64) rotate(90) scale(60 55.5)">
<stop stop-color="#62FAEA"/>
<stop offset="1" stop-color="#44E4D2"/>
</radialGradient>
<radialGradient id="paint14_radial_172_55" cx="0" cy="0" r="1" gradientUnits="userSpaceOnUse" gradientTransform="translate(64.5 64) rotate(90) scale(60 55.5)">
<stop stop-color="#62FAEA"/>
<stop offset="1" stop-color="#44E4D2"/>
</radialGradient>
<radialGradient id="paint15_radial_172_55" cx="0" cy="0" r="1" gradientUnits="userSpaceOnUse" gradientTransform="translate(64.5 64) rotate(90) scale(60 55.5)">
<stop stop-color="#62FAEA"/>
<stop offset="1" stop-color="#44E4D2"/>
</radialGradient>
<radialGradient id="paint16_radial_172_55" cx="0" cy="0" r="1" gradientUnits="userSpaceOnUse" gradientTransform="translate(64.5 64) rotate(90) scale(60 55.5)">
<stop stop-color="#62FAEA"/>
<stop offset="1" stop-color="#44E4D2"/>
</radialGradient>
<radialGradient id="paint17_radial_172_55" cx="0" cy="0" r="1" gradientUnits="userSpaceOnUse" gradientTransform="translate(64.5 64) rotate(90) scale(60 55.5)">
<stop stop-color="#62FAEA"/>
<stop offset="1" stop-color="#44E4D2"/>
</radialGradient>
<radialGradient id="paint18_radial_172_55" cx="0" cy="0" r="1" gradientUnits="userSpaceOnUse" gradientTransform="translate(64.5 64) rotate(90) scale(60 55.5)">
<stop stop-color="#62FAEA"/>
<stop offset="1" stop-color="#44E4D2"/>
</radialGradient>
<radialGradient id="paint19_radial_172_55" cx="0" cy="0" r="1" gradientUnits="userSpaceOnUse" gradientTransform="translate(64.5 64) rotate(90) scale(60 55.5)">
<stop stop-color="#62FAEA"/>
<stop offset="1" stop-color="#44E4D2"/>
</radialGradient>
<radialGradient id="paint20_radial_172_55" cx="0" cy="0" r="1" gradientUnits="userSpaceOnUse" gradientTransform="translate(64.5 64) rotate(90) scale(60 55.5)">
<stop stop-color="#62FAEA"/>
<stop offset="1" stop-color="#44E4D2"/>
</radialGradient>
<radialGradient id="paint21_radial_172_55" cx="0" cy="0" r="1" gradientUnits="userSpaceOnUse" gradientTransform="translate(64.5 64) rotate(90) scale(60 55.5)">
<stop stop-color="#62FAEA"/>
<stop offset="1" stop-color="#44E4D2"/>
</radialGradient>
<radialGradient id="paint22_radial_172_55" cx="0" cy="0" r="1" gradientUnits="userSpaceOnUse" gradientTransform="translate(64.5 64) rotate(90) scale(60 55.5)">
<stop stop-color="#62FAEA"/>
<stop offset="1" stop-color="#44E4D2"/>
</radialGradient>
<radialGradient id="paint23_radial_172_55" cx="0" cy="0" r="1" gradientUnits="userSpaceOnUse" gradientTransform="translate(64.5 64) rotate(90) scale(60 55.5)">
<stop stop-color="#62FAEA"/>
<stop offset="1" stop-color="#44E4D2"/>
</radialGradient>
<radialGradient id="paint24_radial_172_55" cx="0" cy="0" r="1" gradientUnits="userSpaceOnUse" gradientTransform="translate(64.5 64) rotate(90) scale(60 55.5)">
<stop stop-color="#62FAEA"/>
<stop offset="1" stop-color="#44E4D2"/>
</radialGradient>
<radialGradient id="paint25_radial_172_55" cx="0" cy="0" r="1" gradientUnits="userSpaceOnUse" gradientTransform="translate(64.5 64) rotate(90) scale(60 55.5)">
<stop stop-color="#62FAEA"/>
<stop offset="1" stop-color="#44E4D2"/>
</radialGradient>
<radialGradient id="paint26_radial_172_55" cx="0" cy="0" r="1" gradientUnits="userSpaceOnUse" gradientTransform="translate(64.5 64) rotate(90) scale(60 55.5)">
<stop stop-color="#62FAEA"/>
<stop offset="1" stop-color="#44E4D2"/>
</radialGradient>
<radialGradient id="paint27_radial_172_55" cx="0" cy="0" r="1" gradientUnits="userSpaceOnUse" gradientTransform="translate(64.5 64) rotate(90) scale(60 55.5)">
<stop stop-color="#62FAEA"/>
<stop offset="1" stop-color="#44E4D2"/>
</radialGradient>
<radialGradient id="paint28_radial_172_55" cx="0" cy="0" r="1" gradientUnits="userSpaceOnUse" gradientTransform="translate(64.5 64) rotate(90) scale(60 55.5)">
<stop stop-color="#62FAEA"/>
<stop offset="1" stop-color="#44E4D2"/>
</radialGradient>
<radialGradient id="paint29_radial_172_55" cx="0" cy="0" r="1" gradientUnits="userSpaceOnUse" gradientTransform="translate(64.5 64) rotate(90) scale(60 55.5)">
<stop stop-color="#62FAEA"/>
<stop offset="1" stop-color="#44E4D2"/>
</radialGradient>
<radialGradient id="paint30_radial_172_55" cx="0" cy="0" r="1" gradientUnits="userSpaceOnUse" gradientTransform="translate(64.5 64) rotate(90) scale(60 55.5)">
<stop stop-color="#62FAEA"/>
<stop offset="1" stop-color="#44E4D2"/>
</radialGradient>
<radialGradient id="paint31_radial_172_55" cx="0" cy="0" r="1" gradientUnits="userSpaceOnUse" gradientTransform="translate(64.5 64) rotate(90) scale(60 55.5)">
<stop stop-color="#62FAEA"/>
<stop offset="1" stop-color="#44E4D2"/>
</radialGradient>
<radialGradient id="paint32_radial_172_55" cx="0" cy="0" r="1" gradientUnits="userSpaceOnUse" gradientTransform="translate(64.5 64) rotate(90) scale(60 55.5)">
<stop stop-color="#62FAEA"/>
<stop offset="1" stop-color="#44E4D2"/>
</radialGradient>
<radialGradient id="paint33_radial_172_55" cx="0" cy="0" r="1" gradientUnits="userSpaceOnUse" gradientTransform="translate(64.5 64) rotate(90) scale(60 55.5)">
<stop stop-color="#62FAEA"/>
<stop offset="1" stop-color="#44E4D2"/>
</radialGradient>
<radialGradient id="paint34_radial_172_55" cx="0" cy="0" r="1" gradientUnits="userSpaceOnUse" gradientTransform="translate(64.5 64) rotate(90) scale(60 55.5)">
<stop stop-color="#62FAEA"/>
<stop offset="1" stop-color="#44E4D2"/>
</radialGradient>
<radialGradient id="paint35_radial_172_55" cx="0" cy="0" r="1" gradientUnits="userSpaceOnUse" gradientTransform="translate(64.5 64) rotate(90) scale(60 55.5)">
<stop stop-color="#62FAEA"/>
<stop offset="1" stop-color="#44E4D2"/>
</radialGradient>
<radialGradient id="paint36_radial_172_55" cx="0" cy="0" r="1" gradientUnits="userSpaceOnUse" gradientTransform="translate(64.5 64) rotate(90) scale(60 55.5)">
<stop stop-color="#62FAEA"/>
<stop offset="1" stop-color="#44E4D2"/>
</radialGradient>
<radialGradient id="paint37_radial_172_55" cx="0" cy="0" r="1" gradientUnits="userSpaceOnUse" gradientTransform="translate(64.5 64) rotate(90) scale(60 55.5)">
<stop stop-color="#62FAEA"/>
<stop offset="1" stop-color="#44E4D2"/>
</radialGradient>
<radialGradient id="paint38_radial_172_55" cx="0" cy="0" r="1" gradientUnits="userSpaceOnUse" gradientTransform="translate(64.5 64) rotate(90) scale(60 55.5)">
<stop stop-color="#62FAEA"/>
<stop offset="1" stop-color="#44E4D2"/>
</radialGradient>
<radialGradient id="paint39_radial_172_55" cx="0" cy="0" r="1" gradientUnits="userSpaceOnUse" gradientTransform="translate(64.5 64) rotate(90) scale(60 55.5)">
<stop stop-color="#62FAEA"/>
<stop offset="1" stop-color="#44E4D2"/>
</radialGradient>
<radialGradient id="paint40_radial_172_55" cx="0" cy="0" r="1" gradientUnits="userSpaceOnUse" gradientTransform="translate(64.5 64) rotate(90) scale(60 55.5)">
<stop stop-color="#62FAEA"/>
<stop offset="1" stop-color="#44E4D2"/>
</radialGradient>
<radialGradient id="paint41_radial_172_55" cx="0" cy="0" r="1" gradientUnits="userSpaceOnUse" gradientTransform="translate(64.5 64) rotate(90) scale(60 55.5)">
<stop stop-color="#62FAEA"/>
<stop offset="1" stop-color="#44E4D2"/>
</radialGradient>
<radialGradient id="paint42_radial_172_55" cx="0" cy="0" r="1" gradientUnits="userSpaceOnUse" gradientTransform="translate(64.5 64) rotate(90) scale(60 55.5)">
<stop stop-color="#62FAEA"/>
<stop offset="1" stop-color="#44E4D2"/>
</radialGradient>
<radialGradient id="paint43_radial_172_55" cx="0" cy="0" r="1" gradientUnits="userSpaceOnUse" gradientTransform="translate(64.5 64) rotate(90) scale(60 55.5)">
<stop stop-color="#62FAEA"/>
<stop offset="1" stop-color="#44E4D2"/>
</radialGradient>
<radialGradient id="paint44_radial_172_55" cx="0" cy="0" r="1" gradientUnits="userSpaceOnUse" gradientTransform="translate(64.5 64) rotate(90) scale(60 55.5)">
<stop stop-color="#62FAEA"/>
<stop offset="1" stop-color="#44E4D2"/>
</radialGradient>
<radialGradient id="paint45_radial_172_55" cx="0" cy="0" r="1" gradientUnits="userSpaceOnUse" gradientTransform="translate(64.5 64) rotate(90) scale(60 55.5)">
<stop stop-color="#62FAEA"/>
<stop offset="1" stop-color="#44E4D2"/>
</radialGradient>
<radialGradient id="paint46_radial_172_55" cx="0" cy="0" r="1" gradientUnits="userSpaceOnUse" gradientTransform="translate(64.5 64) rotate(90) scale(60 55.5)">
<stop stop-color="#62FAEA"/>
<stop offset="1" stop-color="#44E4D2"/>
</radialGradient>
<radialGradient id="paint47_radial_172_55" cx="0" cy="0" r="1" gradientUnits="userSpaceOnUse" gradientTransform="translate(64.5 64) rotate(90) scale(60 55.5)">
<stop stop-color="#62FAEA"/>
<stop offset="1" stop-color="#44E4D2"/>
</radialGradient>
<radialGradient id="paint48_radial_172_55" cx="0" cy="0" r="1" gradientUnits="userSpaceOnUse" gradientTransform="translate(64.5 64) rotate(90) scale(60 55.5)">
<stop stop-color="#62FAEA"/>
<stop offset="1" stop-color="#44E4D2"/>
</radialGradient>
<radialGradient id="paint49_radial_172_55" cx="0" cy="0" r="1" gradientUnits="userSpaceOnUse" gradientTransform="translate(64.5 64) rotate(90) scale(60 55.5)">
<stop stop-color="#62FAEA"/>
<stop offset="1" stop-color="#44E4D2"/>
</radialGradient>
<radialGradient id="paint50_radial_172_55" cx="0" cy="0" r="1" gradientUnits="userSpaceOnUse" gradientTransform="translate(64.5 64) rotate(90) scale(60 55.5)">
<stop stop-color="#62FAEA"/>
<stop offset="1" stop-color="#44E4D2"/>
</radialGradient>
<radialGradient id="paint51_radial_172_55" cx="0" cy="0" r="1" gradientUnits="userSpaceOnUse" gradientTransform="translate(64.5 64) rotate(90) scale(60 55.5)">
<stop stop-color="#62FAEA"/>
<stop offset="1" stop-color="#44E4D2"/>
</radialGradient>
<radialGradient id="paint52_radial_172_55" cx="0" cy="0" r="1" gradientUnits="userSpaceOnUse" gradientTransform="translate(64.5 64) rotate(90) scale(60 55.5)">
<stop stop-color="#62FAEA"/>
<stop offset="1" stop-color="#44E4D2"/>
</radialGradient>
<radialGradient id="paint53_radial_172_55" cx="0" cy="0" r="1" gradientUnits="userSpaceOnUse" gradientTransform="translate(64.5 64) rotate(90) scale(60 55.5)">
<stop stop-color="#62FAEA"/>
<stop offset="1" stop-color="#44E4D2"/>
</radialGradient>
<radialGradient id="paint54_radial_172_55" cx="0" cy="0" r="1" gradientUnits="userSpaceOnUse" gradientTransform="translate(64.5 64) rotate(90) scale(60 55.5)">
<stop stop-color="#62FAEA"/>
<stop offset="1" stop-color="#44E4D2"/>
</radialGradient>
<radialGradient id="paint55_radial_172_55" cx="0" cy="0" r="1" gradientUnits="userSpaceOnUse" gradientTransform="translate(64.5 64) rotate(90) scale(60 55.5)">
<stop stop-color="#62FAEA"/>
<stop offset="1" stop-color="#44E4D2"/>
</radialGradient>
<radialGradient id="paint56_radial_172_55" cx="0" cy="0" r="1" gradientUnits="userSpaceOnUse" gradientTransform="translate(64.5 64) rotate(90) scale(60 55.5)">
<stop stop-color="#62FAEA"/>
<stop offset="1" stop-color="#44E4D2"/>
</radialGradient>
<radialGradient id="paint57_radial_172_55" cx="0" cy="0" r="1" gradientUnits="userSpaceOnUse" gradientTransform="translate(64.5 64) rotate(90) scale(60 55.5)">
<stop stop-color="#62FAEA"/>
<stop offset="1" stop-color="#44E4D2"/>
</radialGradient>
<radialGradient id="paint58_radial_172_55" cx="0" cy="0" r="1" gradientUnits="userSpaceOnUse" gradientTransform="translate(64.5 64) rotate(90) scale(60 55.5)">
<stop stop-color="#62FAEA"/>
<stop offset="1" stop-color="#44E4D2"/>
</radialGradient>
<radialGradient id="paint59_radial_172_55" cx="0" cy="0" r="1" gradientUnits="userSpaceOnUse" gradientTransform="translate(64.5 64) rotate(90) scale(60 55.5)">
<stop stop-color="#62FAEA"/>
<stop offset="1" stop-color="#44E4D2"/>
</radialGradient>
<radialGradient id="paint60_radial_172_55" cx="0" cy="0" r="1" gradientUnits="userSpaceOnUse" gradientTransform="translate(64.5 64) rotate(90) scale(60 55.5)">
<stop stop-color="#62FAEA"/>
<stop offset="1" stop-color="#44E4D2"/>
</radialGradient>
<radialGradient id="paint61_radial_172_55" cx="0" cy="0" r="1" gradientUnits="userSpaceOnUse" gradientTransform="translate(64.5 64) rotate(90) scale(60 55.5)">
<stop stop-color="#62FAEA"/>
<stop offset="1" stop-color="#44E4D2"/>
</radialGradient>
<radialGradient id="paint62_radial_172_55" cx="0" cy="0" r="1" gradientUnits="userSpaceOnUse" gradientTransform="translate(64.5 64) rotate(90) scale(60 55.5)">
<stop stop-color="#62FAEA"/>
<stop offset="1" stop-color="#44E4D2"/>
</radialGradient>
<radialGradient id="paint63_radial_172_55" cx="0" cy="0" r="1" gradientUnits="userSpaceOnUse" gradientTransform="translate(64.5 64) rotate(90) scale(60 55.5)">
<stop stop-color="#62FAEA"/>
<stop offset="1" stop-color="#44E4D2"/>
</radialGradient>
<radialGradient id="paint64_radial_172_55" cx="0" cy="0" r="1" gradientUnits="userSpaceOnUse" gradientTransform="translate(64.5 64) rotate(90) scale(60 55.5)">
<stop stop-color="#62FAEA"/>
<stop offset="1" stop-color="#44E4D2"/>
</radialGradient>
<radialGradient id="paint65_radial_172_55" cx="0" cy="0" r="1" gradientUnits="userSpaceOnUse" gradientTransform="translate(64.5 64) rotate(90) scale(60 55.5)">
<stop stop-color="#62FAEA"/>
<stop offset="1" stop-color="#44E4D2"/>
</radialGradient>
<radialGradient id="paint66_radial_172_55" cx="0" cy="0" r="1" gradientUnits="userSpaceOnUse" gradientTransform="translate(64.5 64) rotate(90) scale(60 55.5)">
<stop stop-color="#62FAEA"/>
<stop offset="1" stop-color="#44E4D2"/>
</radialGradient>
<radialGradient id="paint67_radial_172_55" cx="0" cy="0" r="1" gradientUnits="userSpaceOnUse" gradientTransform="translate(64.5 64) rotate(90) scale(60 55.5)">
<stop stop-color="#62FAEA"/>
<stop offset="1" stop-color="#44E4D2"/>
</radialGradient>
<radialGradient id="paint68_radial_172_55" cx="0" cy="0" r="1" gradientUnits="userSpaceOnUse" gradientTransform="translate(64.5 64) rotate(90) scale(60 55.5)">
<stop stop-color="#62FAEA"/>
<stop offset="1" stop-color="#44E4D2"/>
</radialGradient>
<radialGradient id="paint69_radial_172_55" cx="0" cy="0" r="1" gradientUnits="userSpaceOnUse" gradientTransform="translate(64.5 64) rotate(90) scale(60 55.5)">
<stop stop-color="#62FAEA"/>
<stop offset="1" stop-color="#44E4D2"/>
</radialGradient>
<radialGradient id="paint70_radial_172_55" cx="0" cy="0" r="1" gradientUnits="userSpaceOnUse" gradientTransform="translate(64.5 64) rotate(90) scale(60 55.5)">
<stop stop-color="#62FAEA"/>
<stop offset="1" stop-color="#44E4D2"/>
</radialGradient>
<radialGradient id="paint71_radial_172_55" cx="0" cy="0" r="1" gradientUnits="userSpaceOnUse" gradientTransform="translate(64.5 64) rotate(90) scale(60 55.5)">
<stop stop-color="#62FAEA"/>
<stop offset="1" stop-color="#44E4D2"/>
</radialGradient>
<radialGradient id="paint72_radial_172_55" cx="0" cy="0" r="1" gradientUnits="userSpaceOnUse" gradientTransform="translate(64.5 64) rotate(90) scale(60 55.5)">
<stop stop-color="#62FAEA"/>
<stop offset="1" stop-color="#44E4D2"/>
</radialGradient>
<radialGradient id="paint73_radial_172_55" cx="0" cy="0" r="1" gradientUnits="userSpaceOnUse" gradientTransform="translate(64.5 64) rotate(90) scale(60 55.5)">
<stop stop-color="#62FAEA"/>
<stop offset="1" stop-color="#44E4D2"/>
</radialGradient>
<radialGradient id="paint74_radial_172_55" cx="0" cy="0" r="1" gradientUnits="userSpaceOnUse" gradientTransform="translate(64.5 64) rotate(90) scale(60 55.5)">
<stop stop-color="#62FAEA"/>
<stop offset="1" stop-color="#44E4D2"/>
</radialGradient>
<radialGradient id="paint75_radial_172_55" cx="0" cy="0" r="1" gradientUnits="userSpaceOnUse" gradientTransform="translate(64.5 64) rotate(90) scale(60 55.5)">
<stop stop-color="#62FAEA"/>
<stop offset="1" stop-color="#44E4D2"/>
</radialGradient>
<radialGradient id="paint76_radial_172_55" cx="0" cy="0" r="1" gradientUnits="userSpaceOnUse" gradientTransform="translate(64.5 64) rotate(90) scale(60 55.5)">
<stop stop-color="#62FAEA"/>
<stop offset="1" stop-color="#44E4D2"/>
</radialGradient>
<radialGradient id="paint77_radial_172_55" cx="0" cy="0" r="1" gradientUnits="userSpaceOnUse" gradientTransform="translate(64.5 64) rotate(90) scale(60 55.5)">
<stop stop-color="#62FAEA"/>
<stop offset="1" stop-color="#44E4D2"/>
</radialGradient>
<radialGradient id="paint78_radial_172_55" cx="0" cy="0" r="1" gradientUnits="userSpaceOnUse" gradientTransform="translate(64.5 64) rotate(90) scale(60 55.5)">
<stop stop-color="#62FAEA"/>
<stop offset="1" stop-color="#44E4D2"/>
</radialGradient>
<radialGradient id="paint79_radial_172_55" cx="0" cy="0" r="1" gradientUnits="userSpaceOnUse" gradientTransform="translate(64.5 64) rotate(90) scale(60 55.5)">
<stop stop-color="#62FAEA"/>
<stop offset="1" stop-color="#44E4D2"/>
</radialGradient>
<radialGradient id="paint80_radial_172_55" cx="0" cy="0" r="1" gradientUnits="userSpaceOnUse" gradientTransform="translate(64.5 64) rotate(90) scale(60 55.5)">
<stop stop-color="#62FAEA"/>
<stop offset="1" stop-color="#44E4D2"/>
</radialGradient>
<radialGradient id="paint81_radial_172_55" cx="0" cy="0" r="1" gradientUnits="userSpaceOnUse" gradientTransform="translate(64.5 64) rotate(90) scale(60 55.5)">
<stop stop-color="#62FAEA"/>
<stop offset="1" stop-color="#44E4D2"/>
</radialGradient>
<radialGradient id="paint82_radial_172_55" cx="0" cy="0" r="1" gradientUnits="userSpaceOnUse" gradientTransform="translate(64.5 64) rotate(90) scale(60 55.5)">
<stop stop-color="#62FAEA"/>
<stop offset="1" stop-color="#44E4D2"/>
</radialGradient>
<radialGradient id="paint83_radial_172_55" cx="0" cy="0" r="1" gradientUnits="userSpaceOnUse" gradientTransform="translate(64.5 64) rotate(90) scale(60 55.5)">
<stop stop-color="#62FAEA"/>
<stop offset="1" stop-color="#44E4D2"/>
</radialGradient>
<radialGradient id="paint84_radial_172_55" cx="0" cy="0" r="1" gradientUnits="userSpaceOnUse" gradientTransform="translate(64.5 64) rotate(90) scale(60 55.5)">
<stop stop-color="#62FAEA"/>
<stop offset="1" stop-color="#44E4D2"/>
</radialGradient>
<radialGradient id="paint85_radial_172_55" cx="0" cy="0" r="1" gradientUnits="userSpaceOnUse" gradientTransform="translate(64.5 64) rotate(90) scale(60 55.5)">
<stop stop-color="#62FAEA"/>
<stop offset="1" stop-color="#44E4D2"/>
</radialGradient>
<radialGradient id="paint86_radial_172_55" cx="0" cy="0" r="1" gradientUnits="userSpaceOnUse" gradientTransform="translate(64.5 64) rotate(90) scale(60 55.5)">
<stop stop-color="#62FAEA"/>
<stop offset="1" stop-color="#44E4D2"/>
</radialGradient>
<radialGradient id="paint87_radial_172_55" cx="0" cy="0" r="1" gradientUnits="userSpaceOnUse" gradientTransform="translate(64.5 64) rotate(90) scale(60 55.5)">
<stop stop-color="#62FAEA"/>
<stop offset="1" stop-color="#44E4D2"/>
</radialGradient>
<radialGradient id="paint88_radial_172_55" cx="0" cy="0" r="1" gradientUnits="userSpaceOnUse" gradientTransform="translate(64.5 64) rotate(90) scale(60 55.5)">
<stop stop-color="#62FAEA"/>
<stop offset="1" stop-color="#44E4D2"/>
</radialGradient>
<radialGradient id="paint89_radial_172_55" cx="0" cy="0" r="1" gradientUnits="userSpaceOnUse" gradientTransform="translate(64.5 64) rotate(90) scale(60 55.5)">
<stop stop-color="#62FAEA"/>
<stop offset="1" stop-color="#44E4D2"/>
</radialGradient>
<radialGradient id="paint90_radial_172_55" cx="0" cy="0" r="1" gradientUnits="userSpaceOnUse" gradientTransform="translate(64.5 64) rotate(90) scale(60 55.5)">
<stop stop-color="#62FAEA"/>
<stop offset="1" stop-color="#44E4D2"/>
</radialGradient>
<radialGradient id="paint91_radial_172_55" cx="0" cy="0" r="1" gradientUnits="userSpaceOnUse" gradientTransform="translate(64.5 64) rotate(90) scale(60 55.5)">
<stop stop-color="#62FAEA"/>
<stop offset="1" stop-color="#44E4D2"/>
</radialGradient>
<radialGradient id="paint92_radial_172_55" cx="0" cy="0" r="1" gradientUnits="userSpaceOnUse" gradientTransform="translate(64.5 64) rotate(90) scale(60 55.5)">
<stop stop-color="#62FAEA"/>
<stop offset="1" stop-color="#44E4D2"/>
</radialGradient>
<radialGradient id="paint93_radial_172_55" cx="0" cy="0" r="1" gradientUnits="userSpaceOnUse" gradientTransform="translate(64.5 64) rotate(90) scale(60 55.5)">
<stop stop-color="#62FAEA"/>
<stop offset="1" stop-color="#44E4D2"/>
</radialGradient>
<radialGradient id="paint94_radial_172_55" cx="0" cy="0" r="1" gradientUnits="userSpaceOnUse" gradientTransform="translate(64.5 64) rotate(90) scale(60 55.5)">
<stop stop-color="#62FAEA"/>
<stop offset="1" stop-color="#44E4D2"/>
</radialGradient>
<radialGradient id="paint95_radial_172_55" cx="0" cy="0" r="1" gradientUnits="userSpaceOnUse" gradientTransform="translate(64.5 64) rotate(90) scale(60 55.5)">
<stop stop-color="#62FAEA"/>
<stop offset="1" stop-color="#44E4D2"/>
</radialGradient>
<radialGradient id="paint96_radial_172_55" cx="0" cy="0" r="1" gradientUnits="userSpaceOnUse" gradientTransform="translate(64.5 64) rotate(90) scale(60 55.5)">
<stop stop-color="#62FAEA"/>
<stop offset="1" stop-color="#44E4D2"/>
</radialGradient>
<radialGradient id="paint97_radial_172_55" cx="0" cy="0" r="1" gradientUnits="userSpaceOnUse" gradientTransform="translate(64.5 64) rotate(90) scale(60 55.5)">
<stop stop-color="#62FAEA"/>
<stop offset="1" stop-color="#44E4D2"/>
</radialGradient>
<radialGradient id="paint98_radial_172_55" cx="0" cy="0" r="1" gradientUnits="userSpaceOnUse" gradientTransform="translate(64.5 64) rotate(90) scale(60 55.5)">
<stop stop-color="#62FAEA"/>
<stop offset="1" stop-color="#44E4D2"/>
</radialGradient>
<radialGradient id="paint99_radial_172_55" cx="0" cy="0" r="1" gradientUnits="userSpaceOnUse" gradientTransform="translate(64.5 64) rotate(90) scale(60 55.5)">
<stop stop-color="#62FAEA"/>
<stop offset="1" stop-color="#44E4D2"/>
</radialGradient>
<radialGradient id="paint100_radial_172_55" cx="0" cy="0" r="1" gradientUnits="userSpaceOnUse" gradientTransform="translate(64.5 64) rotate(90) scale(60 55.5)">
<stop stop-color="#62FAEA"/>
<stop offset="1" stop-color="#44E4D2"/>
</radialGradient>
<radialGradient id="paint101_radial_172_55" cx="0" cy="0" r="1" gradientUnits="userSpaceOnUse" gradientTransform="translate(64.5 64) rotate(90) scale(60 55.5)">
<stop stop-color="#62FAEA"/>
<stop offset="1" stop-color="#44E4D2"/>
</radialGradient>
<radialGradient id="paint102_radial_172_55" cx="0" cy="0" r="1" gradientUnits="userSpaceOnUse" gradientTransform="translate(64.5 64) rotate(90) scale(60 55.5)">
<stop stop-color="#62FAEA"/>
<stop offset="1" stop-color="#44E4D2"/>
</radialGradient>
<radialGradient id="paint103_radial_172_55" cx="0" cy="0" r="1" gradientUnits="userSpaceOnUse" gradientTransform="translate(64.5 64) rotate(90) scale(60 55.5)">
<stop stop-color="#62FAEA"/>
<stop offset="1" stop-color="#44E4D2"/>
</radialGradient>
<radialGradient id="paint104_radial_172_55" cx="0" cy="0" r="1" gradientUnits="userSpaceOnUse" gradientTransform="translate(64.5 64) rotate(90) scale(60 55.5)">
<stop stop-color="#62FAEA"/>
<stop offset="1" stop-color="#44E4D2"/>
</radialGradient>
<radialGradient id="paint105_radial_172_55" cx="0" cy="0" r="1" gradientUnits="userSpaceOnUse" gradientTransform="translate(64.5 64) rotate(90) scale(60 55.5)">
<stop stop-color="#62FAEA"/>
<stop offset="1" stop-color="#44E4D2"/>
</radialGradient>
<radialGradient id="paint106_radial_172_55" cx="0" cy="0" r="1" gradientUnits="userSpaceOnUse" gradientTransform="translate(64.5 64) rotate(90) scale(60 55.5)">
<stop stop-color="#62FAEA"/>
<stop offset="1" stop-color="#44E4D2"/>
</radialGradient>
<radialGradient id="paint107_radial_172_55" cx="0" cy="0" r="1" gradientUnits="userSpaceOnUse" gradientTransform="translate(64.5 64) rotate(90) scale(60 55.5)">
<stop stop-color="#62FAEA"/>
<stop offset="1" stop-color="#44E4D2"/>
</radialGradient>
<radialGradient id="paint108_radial_172_55" cx="0" cy="0" r="1" gradientUnits="userSpaceOnUse" gradientTransform="translate(64.5 64) rotate(90) scale(60 55.5)">
<stop stop-color="#62FAEA"/>
<stop offset="1" stop-color="#44E4D2"/>
</radialGradient>
<radialGradient id="paint109_radial_172_55" cx="0" cy="0" r="1" gradientUnits="userSpaceOnUse" gradientTransform="translate(64.5 64) rotate(90) scale(60 55.5)">
<stop stop-color="#62FAEA"/>
<stop offset="1" stop-color="#44E4D2"/>
</radialGradient>
<radialGradient id="paint110_radial_172_55" cx="0" cy="0" r="1" gradientUnits="userSpaceOnUse" gradientTransform="translate(64.5 64) rotate(90) scale(60 55.5)">
<stop stop-color="#62FAEA"/>
<stop offset="1" stop-color="#44E4D2"/>
</radialGradient>
<radialGradient id="paint111_radial_172_55" cx="0" cy="0" r="1" gradientUnits="userSpaceOnUse" gradientTransform="translate(64.5 64) rotate(90) scale(60 55.5)">
<stop stop-color="#62FAEA"/>
<stop offset="1" stop-color="#44E4D2"/>
</radialGradient>
<radialGradient id="paint112_radial_172_55" cx="0" cy="0" r="1" gradientUnits="userSpaceOnUse" gradientTransform="translate(64.5 64) rotate(90) scale(60 55.5)">
<stop stop-color="#62FAEA"/>
<stop offset="1" stop-color="#44E4D2"/>
</radialGradient>
<radialGradient id="paint113_radial_172_55" cx="0" cy="0" r="1" gradientUnits="userSpaceOnUse" gradientTransform="translate(64.5 64) rotate(90) scale(60 55.5)">
<stop stop-color="#62FAEA"/>
<stop offset="1" stop-color="#44E4D2"/>
</radialGradient>
<radialGradient id="paint114_radial_172_55" cx="0" cy="0" r="1" gradientUnits="userSpaceOnUse" gradientTransform="translate(64.5 64) rotate(90) scale(60 55.5)">
<stop stop-color="#62FAEA"/>
<stop offset="1" stop-color="#44E4D2"/>
</radialGradient>
<radialGradient id="paint115_radial_172_55" cx="0" cy="0" r="1" gradientUnits="userSpaceOnUse" gradientTransform="translate(64.5 64) rotate(90) scale(60 55.5)">
<stop stop-color="#62FAEA"/>
<stop offset="1" stop-color="#44E4D2"/>
</radialGradient>
<radialGradient id="paint116_radial_172_55" cx="0" cy="0" r="1" gradientUnits="userSpaceOnUse" gradientTransform="translate(64.5 64) rotate(90) scale(60 55.5)">
<stop stop-color="#62FAEA"/>
<stop offset="1" stop-color="#44E4D2"/>
</radialGradient>
<radialGradient id="paint117_radial_172_55" cx="0" cy="0" r="1" gradientUnits="userSpaceOnUse" gradientTransform="translate(64.5 64) rotate(90) scale(60 55.5)">
<stop stop-color="#62FAEA"/>
<stop offset="1" stop-color="#44E4D2"/>
</radialGradient>
<radialGradient id="paint118_radial_172_55" cx="0" cy="0" r="1" gradientUnits="userSpaceOnUse" gradientTransform="translate(64.5 64) rotate(90) scale(60 55.5)">
<stop stop-color="#62FAEA"/>
<stop offset="1" stop-color="#44E4D2"/>
</radialGradient>
<radialGradient id="paint119_radial_172_55" cx="0" cy="0" r="1" gradientUnits="userSpaceOnUse" gradientTransform="translate(64.5 64) rotate(90) scale(60 55.5)">
<stop stop-color="#62FAEA"/>
<stop offset="1" stop-color="#44E4D2"/>
</radialGradient>
<radialGradient id="paint120_radial_172_55" cx="0" cy="0" r="1" gradientUnits="userSpaceOnUse" gradientTransform="translate(64.5 64) rotate(90) scale(60 55.5)">
<stop stop-color="#62FAEA"/>
<stop offset="1" stop-color="#44E4D2"/>
</radialGradient>
<radialGradient id="paint121_radial_172_55" cx="0" cy="0" r="1" gradientUnits="userSpaceOnUse" gradientTransform="translate(64.5 64) rotate(90) scale(60 55.5)">
<stop stop-color="#62FAEA"/>
<stop offset="1" stop-color="#44E4D2"/>
</radialGradient>
<radialGradient id="paint122_radial_172_55" cx="0" cy="0" r="1" gradientUnits="userSpaceOnUse" gradientTransform="translate(64.5 64) rotate(90) scale(60 55.5)">
<stop stop-color="#62FAEA"/>
<stop offset="1" stop-color="#44E4D2"/>
</radialGradient>
<radialGradient id="paint123_radial_172_55" cx="0" cy="0" r="1" gradientUnits="userSpaceOnUse" gradientTransform="translate(64.5 64) rotate(90) scale(60 55.5)">
<stop stop-color="#62FAEA"/>
<stop offset="1" stop-color="#44E4D2"/>
</radialGradient>
<radialGradient id="paint124_radial_172_55" cx="0" cy="0" r="1" gradientUnits="userSpaceOnUse" gradientTransform="translate(64.5 64) rotate(90) scale(60 55.5)">
<stop stop-color="#62FAEA"/>
<stop offset="1" stop-color="#44E4D2"/>
</radialGradient>
</defs>
</svg>
